# xmcd CD database file
#
# Track frame offsets:
#	150
#	13545
#	26325
#	39483
#	51659
#	63562
#	77670
#	89991
#	102336
#	115266
#	128343
#	140956
#	152971
#	165446
#	179995
#	194138
#	207848
#
# Disc length: 2928 seconds
#
# Revision: 0
# Processed by: cddbd v1.5.1PL0 Copyright (c) Steve Scherf et al.
# Submitted via: CDex 1.51
#
DISCID=fd0b6e11
DTITLE=Dizzy Gillespie - The Rhythm Man
DYEAR=2000
DGENRE=Jazz
TTITLE0=I Got A Date With Rhythm
TTITLE1=I Stay In The Mood For You
TTITLE2=Good Jelly Blues
TTITLE3=If That's The Way You Feel
TTITLE4=I Want To Talk About You
TTITLE5=Blowing The Blues Away
TTITLE6=I'll Wait and Pray
TTITLE7=The Real Thing Happened To Me
TTITLE8=Dream of You
TTITLE9=Seventh Avenue
TTITLE10=Ooh! Ooh! My! My! Oh! Oh!
TTITLE11=Groovin' High
TTITLE12=Dizzy Atmosphere
TTITLE13=Lover Man
TTITLE14=Hot House
TTITLE15=What More Can A Woman Do
TTITLE16=Mean to Me
EXTD=YEAR: 2000
EXTT0=
EXTT1=
EXTT2=
EXTT3=
EXTT4=
EXTT5=
EXTT6=
EXTT7=
EXTT8=
EXTT9=
EXTT10=
EXTT11=
EXTT12=
EXTT13=
EXTT14=
EXTT15=
EXTT16=
PLAYORDER=
